<svg width="280" height="276" viewBox="0 0 280 276" fill="none" xmlns="http://www.w3.org/2000/svg">
<path fill-rule="evenodd" clip-rule="evenodd" d="M64.0782 17.9692L63.5334 20.0174L62.0441 21.5048L59.9932 22.0488L57.9634 21.5018L56.477 20.0174L55.9323 17.9692L56.48 15.9421L57.9634 14.4606L59.9932 13.9136L62.0441 14.4576L63.5304 15.9421L64.0782 17.9692ZM226.03 17.9713L225.576 20.2855L224.261 22.2428L222.301 23.5556L219.984 24.0089L217.685 23.5545L215.727 22.2428L214.412 20.2855L213.958 17.9713L214.413 15.6753L215.727 13.7196L217.685 12.408L219.984 11.9536L222.301 12.4068L224.261 13.7196L225.575 15.6753L226.03 17.9713ZM192.018 17.9725L191.637 20.9769L190.515 23.7691L188.749 26.1969L186.427 28.1166L183.708 29.389L180.759 29.9589L177.751 29.7688L174.881 28.8385L172.332 27.2242L170.275 25.0363L168.831 22.3998L168.071 19.4949V16.4675L168.831 13.5626L170.275 10.9261L172.332 8.73826L174.881 7.12393L177.751 6.19366L180.759 6.00355L183.708 6.57347L186.427 7.84587L188.749 9.76554L190.515 12.1933L191.637 14.9847L192.018 17.9725ZM236.008 57.9254L235.646 61.2544L234.616 64.4313L232.948 67.328L230.704 69.8042L228.007 71.7745L224.942 73.1329L221.666 73.8197H218.322L215.046 73.1329L211.981 71.7745L209.284 69.8042L207.04 67.328L205.375 64.4358L204.325 61.2544L203.981 57.9254L204.325 54.5963L205.375 51.4149L207.04 48.5227L209.284 46.0466L211.981 44.0762L215.046 42.7178L218.322 42.031H221.666L224.942 42.7178L228.007 44.0762L230.704 46.0466L232.948 48.5227L234.616 51.4194L235.646 54.5963L236.008 57.9254ZM112.024 97.8608L111.643 100.865L110.521 103.657L108.754 106.085L106.432 108.005L103.713 109.277L100.765 109.847L97.7567 109.657L94.8861 108.727L92.3378 107.112L90.2804 104.925L88.8369 102.288L88.0765 99.3832V96.3559L88.8369 93.4509L90.2804 90.8144L92.3378 88.6266L94.8861 87.0122L97.7567 86.082L100.765 85.8919L103.713 86.4618L106.432 87.7342L108.754 89.6538L110.521 92.0816L111.642 94.8731L112.024 97.8608ZM26.0553 57.9254L25.5779 60.2375L24.2856 62.1973L22.3232 63.4879L20.0081 63.9646L17.693 63.4879L15.7379 62.2022L14.4184 60.2375L13.965 57.9254L14.4184 55.6132L15.7379 53.6486L17.6929 52.3628L20.0081 51.8861L22.3232 52.3628L24.2856 53.6535L25.5779 55.6132L26.0553 57.9254ZM230.016 97.8606L229.639 100.575L228.549 103.068L226.826 105.185L224.602 106.751L222.03 107.66L219.315 107.858L216.63 107.302L214.213 106.036L212.215 104.178L210.804 101.856L210.071 99.2252V96.5139L210.804 93.8831L212.215 91.5608L214.213 89.7035L216.63 88.4372L219.315 87.8811L222.03 88.079L224.602 88.9877L226.826 90.5542L228.549 92.6707L229.638 95.1637L230.016 97.8606ZM274.004 97.861L273.652 100.981L272.616 103.938L270.935 106.595L268.719 108.808L266.074 110.471L263.114 111.505L259.991 111.856L256.868 111.505L253.912 110.472L251.25 108.81L249.028 106.591L247.365 103.933L246.33 100.981L245.979 97.861L246.33 94.7578L247.365 91.8061L249.028 89.1478L251.25 86.9289L253.912 85.2675L256.868 84.2342L259.991 83.8835L263.114 84.2342L266.074 85.2686L268.719 86.9311L270.935 89.1443L272.616 91.8013L273.652 94.7578L274.004 97.861ZM40.017 137.814L39.665 141.487L38.6629 145.034L37.0244 148.324L34.7894 151.277L32.0641 153.753L28.9291 155.705L25.4792 157.023L21.858 157.708H18.1582L14.5369 157.023L11.087 155.705L7.95199 153.753L5.22673 151.277L2.99175 148.324L1.35528 145.038L0.334414 141.487L0 137.814L0.334414 134.14L1.35469 130.591L2.99174 127.287L5.22888 124.349L7.95199 121.875L11.0832 119.925L14.5369 118.587L18.1629 117.919H21.8532L25.4792 118.587L28.9329 119.925L32.0641 121.875L34.7872 124.349L37.0244 127.287L38.6635 130.596L39.665 134.14L40.017 137.814ZM36.0133 177.749L35.6696 181.074L34.6362 184.26L32.9547 187.149L30.7268 189.646L28.0058 191.602L24.9527 192.955L21.6775 193.66H18.3216L15.0624 192.955L12.0103 191.602L9.29261 189.648L7.0445 187.149L5.37849 184.256L4.34656 181.074L4.00281 177.749L4.34673 174.441L5.37849 171.26L7.0445 168.366L9.29261 165.868L12.0062 163.916L15.0624 162.544L18.327 161.856H21.6722L24.9527 162.543L28.0099 163.916L30.7268 165.87L32.9547 168.366L34.6362 171.255L35.6694 174.441L36.0133 177.749ZM34.0206 97.861L33.6694 100.981L32.633 103.938L30.9516 106.595L28.7356 108.808L26.0904 110.471L23.1312 111.505L20.0081 111.856L16.885 111.505L13.9287 110.472L11.2669 108.81L9.04507 106.591L7.38146 103.933L6.34676 100.981L5.99556 97.861L6.34698 94.7578L7.38146 91.806L9.04507 89.1478L11.2669 86.9289L13.9287 85.2675L16.885 84.2342L20.0081 83.8835L23.1312 84.2342L26.0904 85.2686L28.7356 86.9311L30.9516 89.1443L32.633 91.8013L33.6691 94.7578L34.0206 97.861ZM280 137.814L279.648 141.487L278.646 145.034L277.007 148.324L274.772 151.277L272.047 153.753L268.912 155.705L265.462 157.023L261.841 157.708H258.141L254.52 157.023L251.07 155.705L247.935 153.752L245.21 151.277L242.975 148.324L241.338 145.038L240.318 141.487L239.983 137.814L240.318 134.14L241.338 130.591L242.975 127.287L245.212 124.349L247.935 121.875L251.066 119.925L254.52 118.587L258.146 117.919H261.836L265.462 118.587L268.916 119.925L272.047 121.875L274.77 124.349L277.007 127.287L278.647 130.596L279.648 134.14L280 137.814ZM275.996 177.749L275.653 181.074L274.619 184.26L272.938 187.149L270.71 189.646L267.989 191.602L264.936 192.955L261.661 193.66H258.305L255.045 192.955L251.993 191.602L249.276 189.648L247.028 187.149L245.362 184.256L244.33 181.074L243.986 177.749L244.33 174.441L245.362 171.26L247.028 168.366L249.276 165.868L251.989 163.916L255.045 162.544L258.31 161.856H261.655L264.936 162.543L267.993 163.916L270.71 165.87L272.938 168.366L274.619 171.255L275.652 174.441L275.996 177.749ZM266.038 217.702L265.561 220.014L264.269 221.974L262.306 223.264L259.991 223.741L257.676 223.264L255.721 221.979L254.402 220.014L253.948 217.702L254.402 215.39L255.721 213.425L257.676 212.139L259.991 211.663L262.306 212.139L264.269 213.43L265.561 215.39L266.038 217.702ZM224.067 257.634L223.522 259.682L222.033 261.17L219.982 261.714L217.952 261.167L216.466 259.682L215.921 257.634L216.469 255.607L217.952 254.126L219.982 253.579L222.033 254.123L223.519 255.607L224.067 257.634ZM70.0271 137.814L69.6501 140.509L68.5601 143.022L66.8369 145.119L64.6189 146.701L62.0346 147.615L59.319 147.793L56.6476 147.239L54.229 145.992L52.2231 144.128L50.8147 141.79L50.0819 139.179V136.448L50.8147 133.837L52.2231 131.5L54.229 129.635L56.6476 128.388L59.319 127.835L62.0346 128.013L64.6189 128.926L66.8369 130.508L68.5601 132.605L69.6501 135.119L70.0271 137.814ZM68.0205 177.749L67.6401 180.239L66.4928 182.467L64.7177 184.24L62.4711 185.383L59.9973 185.763L57.5197 185.382L55.29 184.237L53.5177 182.467L52.3742 180.247L51.9715 177.749L52.3749 175.268L53.5177 173.049L55.29 171.279L57.5196 170.134L59.9973 169.753L62.4711 170.133L64.7177 171.276L66.4928 173.049L67.6395 175.275L68.0205 177.749ZM24.0742 217.702L23.5254 219.733L22.0419 221.215L20.0081 221.763L17.9853 221.218L16.4665 219.733L15.95 217.702L16.4665 215.671L17.9853 214.186L20.0081 213.641L22.0419 214.189L23.5254 215.671L24.0742 217.702ZM192.018 257.637L191.637 260.642L190.515 263.434L188.749 265.862L186.427 267.781L183.708 269.054L180.759 269.624L177.751 269.434L174.881 268.503L172.332 266.889L170.275 264.701L168.831 262.065L168.071 259.16V256.132L168.831 253.228L170.275 250.591L172.332 248.403L174.881 246.789L177.751 245.859L180.759 245.668L183.708 246.238L186.427 247.511L188.749 249.43L190.515 251.858L191.637 254.65L192.018 257.637ZM116.008 257.638L115.664 260.962L114.631 264.149L112.949 267.038L110.721 269.534L108 271.49L104.947 272.844L101.672 273.548H98.3159L95.0567 272.843L92.0046 271.49L89.287 269.536L87.0389 267.038L85.3728 264.144L84.3409 260.962L83.9972 257.638L84.3411 254.33L85.3728 251.148L87.0389 248.255L89.287 245.756L92.0006 243.805L95.0568 242.432L98.3213 241.744H101.667L104.947 242.432L108.004 243.805L110.721 245.758L112.949 248.255L114.631 251.144L115.664 254.33L116.008 257.638ZM66.0408 257.636L65.5869 259.95L64.2724 261.908L62.3125 263.221L59.9953 263.674L57.6963 263.219L55.7381 261.908L54.4235 259.95L53.9696 257.636L54.4247 255.34L55.7381 253.385L57.6963 252.073L59.9953 251.618L62.3125 252.072L64.2724 253.385L65.5858 255.34L66.0408 257.636ZM58.2717 18.9852L58.9999 19.7124L59.9973 19.9812L61.0105 19.7124L61.7387 18.9852L62.0079 17.9733L61.7387 16.9773L61.0105 16.25L59.9973 15.9812L58.9999 16.25L58.2717 16.9773L58.0026 17.9733L58.2717 18.9852ZM222.82 15.1591L221.522 14.2896L219.986 13.9892L218.466 14.2896L217.168 15.1591L216.297 16.4556L215.997 17.9733L216.297 19.5069L217.168 20.8033L218.466 21.6729L219.986 21.9733L221.522 21.6729L222.82 20.8033L223.69 19.5069L223.991 17.9733L223.69 16.4556L222.82 15.1591ZM188.751 13.1671L189.685 15.4911L190.002 17.9733L189.685 20.4713L188.751 22.7954L187.279 24.8191L185.348 26.4159L183.084 27.4752L180.63 27.9495L178.129 27.7914L175.738 27.0167L173.617 25.6728L171.907 23.8547L170.704 21.6571L170.071 19.2381V16.7243L170.704 14.3054L171.907 12.1078L173.617 10.2896L175.738 8.94577L178.129 8.17107L180.63 8.01298L183.084 8.48726L185.348 9.54656L187.279 11.1434L188.751 13.1671ZM232.778 52.2338L233.68 55.0163L233.997 57.9254L233.68 60.8344L232.778 63.617L231.321 66.1466L229.358 68.3126L226.999 70.0359L224.324 71.2216L221.458 71.8224H218.53L215.664 71.2216L212.989 70.0359L210.63 68.3126L208.667 66.1466L207.21 63.617L206.292 60.8344L205.991 57.9254L206.292 55.0163L207.21 52.2338L208.667 49.7041L210.63 47.5382L212.989 45.8149L215.664 44.6291L218.53 44.0283H221.458L224.324 44.6291L226.999 45.8149L229.358 47.5382L231.321 49.7041L232.778 52.2338ZM108.757 93.0554L109.691 95.3794L110.008 97.8616L109.691 100.36L108.757 102.684L107.285 104.707L105.353 106.304L103.089 107.363L100.636 107.838L98.1343 107.68L95.7439 106.905L93.6225 105.561L91.9127 103.743L90.7096 101.545L90.0763 99.1264V96.6126L90.7096 94.1937L91.9127 91.9961L93.6225 90.1779L95.7439 88.8341L98.1343 88.0594L100.636 87.9013L103.089 88.3756L105.353 89.4349L107.285 91.0317L108.757 93.0554ZM22.8418 55.0954L23.6967 56.3918L24.0133 57.9254L23.6967 59.459L22.8418 60.7554L21.5437 61.6091L20.0081 61.9253L18.4725 61.6091L17.1743 60.7554L16.3036 59.459L16.0028 57.9254L16.3036 56.3918L17.1743 55.0954L18.4725 54.2416L20.0081 53.9254L21.5437 54.2416L22.8418 55.0954ZM226.825 93.7194L227.696 95.7115L227.997 97.8616L227.696 100.028L226.825 102.02L225.448 103.711L223.675 104.96L221.617 105.688L219.448 105.846L217.311 105.403L215.379 104.391L213.78 102.905L212.656 101.055L212.071 98.9525V96.7865L212.656 94.6838L213.78 92.834L215.379 91.3479L217.311 90.336L219.448 89.8933L221.617 90.0515L223.675 90.7787L225.448 92.0277L226.825 93.7194ZM270.804 92.6759L269.363 90.3993L267.463 88.5021L265.2 87.0792L262.667 86.1938L259.991 85.8934L257.316 86.1938L254.783 87.0792L252.503 88.5021L250.603 90.3993L249.179 92.6759L248.292 95.2055L247.991 97.8616L248.292 100.534L249.179 103.063L250.603 105.34L252.503 107.237L254.783 108.66L257.316 109.545L259.991 109.846L262.667 109.545L265.2 108.66L267.463 107.237L269.363 105.34L270.804 103.063L271.69 100.534L271.991 97.8616L271.69 95.2055L270.804 92.6759ZM36.789 131.316L37.6913 134.509L38.008 137.814L37.6913 141.118L36.789 144.312L35.3167 147.268L33.3062 149.924L30.8523 152.153L28.0344 153.908L24.9315 155.094L21.6703 155.711H18.3458L15.0846 155.094L11.9817 153.908L9.16379 152.153L6.70995 149.924L4.69942 147.268L3.22715 144.312L2.30892 141.118L2.00812 137.814L2.30892 134.509L3.22715 131.316L4.69942 128.343L6.70995 125.703L9.16379 123.474L11.9817 121.719L15.0846 120.517L18.3458 119.917H21.6703L24.9315 120.517L28.0344 121.719L30.8523 123.474L33.3062 125.703L35.3167 128.343L36.789 131.316ZM32.7996 172.074L33.7019 174.857L34.0027 177.75L33.7019 180.659L32.7996 183.442L31.3273 185.971L29.38 188.153L27.0054 189.86L24.3299 191.046L21.4645 191.663H18.5358L15.6862 191.046L13.0107 189.86L10.6361 188.153L8.67304 185.971L7.21656 183.442L6.31417 180.659L6.01338 177.75L6.31417 174.857L7.21656 172.074L8.67304 169.544L10.6361 167.363L13.0107 165.655L15.6862 164.454L18.5358 163.853H21.4645L24.3299 164.454L27.0054 165.655L29.38 167.363L31.3273 169.544L32.7996 172.074ZM30.8207 92.6759L29.38 90.3993L27.4803 88.5021L25.2165 87.0792L22.6835 86.1938L20.0081 85.8934L17.3326 86.1938L14.7996 87.0792L12.52 88.5021L10.6202 90.3993L9.19544 92.6759L8.3089 95.2055L8.00811 97.8616L8.3089 100.534L9.19544 103.063L10.6202 105.34L12.52 107.237L14.7996 108.66L17.3326 109.545L20.0081 109.846L22.6835 109.545L25.2165 108.66L27.4803 107.237L29.38 105.34L30.8207 103.063L31.7072 100.534L32.008 97.8616L31.7072 95.2055L30.8207 92.6759ZM276.772 131.316L275.3 128.343L273.289 125.703L270.835 123.474L268.017 121.719L264.915 120.517L261.653 119.917H258.329L255.068 120.517L251.965 121.719L249.147 123.474L246.693 125.703L244.682 128.343L243.21 131.316L242.292 134.509L241.991 137.814L242.292 141.118L243.21 144.312L244.682 147.268L246.693 149.924L249.147 152.153L251.965 153.908L255.068 155.094L258.329 155.711H261.653L264.915 155.094L268.017 153.908L270.835 152.153L273.289 149.924L275.3 147.268L276.772 144.312L277.674 141.118L277.991 137.814L277.674 134.509L276.772 131.316ZM272.783 172.074L273.685 174.857L273.986 177.75L273.685 180.659L272.783 183.442L271.31 185.971L269.363 188.153L266.988 189.86L264.313 191.046L261.448 191.663H258.519L255.669 191.046L252.994 189.86L250.619 188.153L248.656 185.971L247.2 183.442L246.297 180.659L245.997 177.75L246.297 174.857L247.2 172.074L248.656 169.544L250.619 167.363L252.994 165.655L255.669 164.454L258.519 163.853H261.448L264.313 164.454L266.988 165.655L269.363 167.363L271.31 169.544L272.783 172.074ZM262.825 214.872L261.527 214.018L259.991 213.702L258.456 214.018L257.157 214.872L256.287 216.168L255.986 217.702L256.287 219.236L257.157 220.532L258.456 221.386L259.991 221.702L261.527 221.386L262.825 220.532L263.68 219.236L263.996 217.702L263.68 216.168L262.825 214.872ZM218.26 258.65L217.991 257.638L218.26 256.642L218.989 255.915L219.986 255.646L220.999 255.915L221.727 256.642L221.997 257.638L221.727 258.65L220.999 259.377L219.986 259.646L218.989 259.377L218.26 258.65ZM66.8363 133.656L65.4591 131.98L63.686 130.715L61.6279 129.988L59.4591 129.845L57.3219 130.288L55.3905 131.284L53.7916 132.77L52.6675 134.636L52.0818 136.723V138.905L52.6675 140.992L53.7916 142.857L55.3905 144.343L57.3219 145.339L59.4591 145.782L61.6279 145.64L63.686 144.912L65.4591 143.648L66.8363 141.972L67.707 139.964L68.0078 137.814L67.707 135.664L66.8363 133.656ZM64.8575 174.24L63.5277 172.912L61.8496 172.058L59.9973 171.774L58.1451 172.058L56.4828 172.912L55.153 174.24L54.2981 175.9L53.9974 177.75L54.2981 179.616L55.153 181.276L56.4828 182.604L58.1451 183.457L59.9973 183.742L61.8496 183.457L63.5277 182.604L64.8575 181.276L65.7123 179.616L65.9973 177.75L65.7123 175.9L64.8575 174.24ZM22.0028 217.702L21.7337 218.698L21.0054 219.425L20.0081 219.694L19.0107 219.425L18.2667 218.698L18.0134 217.702L18.2667 216.706L19.0107 215.979L20.0081 215.71L21.0054 215.979L21.7337 216.706L22.0028 217.702ZM190.002 257.638L189.685 255.156L188.751 252.832L187.279 250.808L185.348 249.211L183.084 248.152L180.63 247.678L178.129 247.836L175.738 248.611L173.617 249.955L171.907 251.773L170.704 253.97L170.071 256.389V258.903L170.704 261.322L171.907 263.52L173.617 265.338L175.738 266.682L178.129 267.456L180.63 267.614L183.084 267.14L185.348 266.081L187.279 264.484L188.751 262.46L189.685 260.136L190.002 257.638ZM113.997 257.638L113.696 254.745L112.794 251.962L111.322 249.433L109.374 247.251L107 245.544L104.324 244.342L101.459 243.741H98.5301L95.6805 244.342L93.0051 245.544L90.6304 247.251L88.6674 249.433L87.2109 251.962L86.3085 254.745L86.0078 257.638L86.3085 260.547L87.2109 263.33L88.6674 265.859L90.6304 268.041L93.0051 269.749L95.6805 270.934L98.5301 271.551H101.459L104.324 270.934L107 269.749L109.374 268.041L111.322 265.859L112.794 263.33L113.696 260.547L113.997 257.638ZM56.3087 256.12L56.0079 257.638L56.3087 259.172L57.1794 260.468L58.4775 261.338L59.9973 261.638L61.5329 261.338L62.8311 260.468L63.7018 259.172L64.0026 257.638L63.7018 256.12L62.8311 254.824L61.5329 253.954L59.9973 253.654L58.4775 253.954L57.1794 254.824L56.3087 256.12Z" fill="#0066B3"/>
<path fill-rule="evenodd" clip-rule="evenodd" d="M159.512 62.2563C158.564 66.5129 156.246 70.3426 152.914 73.1607C149.582 75.9788 145.418 77.6304 141.058 77.8634C136.698 78.0963 132.381 76.8978 128.767 74.4508C125.973 72.5592 123.718 70.0018 122.192 67.0299C121.744 66.1574 121.359 65.2492 121.042 64.3116C120.753 65.2597 120.402 66.1829 119.992 67.0758C118.386 70.5737 115.879 73.6058 112.706 75.8492C108.723 78.6652 103.915 80.0785 99.0394 79.8666C94.1637 79.6547 89.497 77.8298 85.7737 74.6789C82.0504 71.528 79.4819 67.2302 78.4725 62.4618C78.3981 62.1133 78.2093 61.7997 77.9361 61.5707C77.6628 61.3417 77.3208 61.2104 76.9643 61.1977C76.6078 61.185 76.2573 61.2916 75.9683 61.5005C75.6794 61.7095 75.4687 62.0089 75.3697 62.3511C74.601 65.0144 73.1518 67.4322 71.1645 69.367C69.1772 71.3018 66.7201 72.687 64.0346 73.3865C63.252 73.5851 62.559 74.0407 62.067 74.6801C61.5749 75.3194 61.3124 76.1054 61.3215 76.9117C61.3306 77.718 61.6109 78.4978 62.1174 79.1259C62.6238 79.7539 63.3269 80.1937 64.1137 80.3746C68.4126 81.3811 72.191 83.9306 74.7301 87.538C77.2693 91.1455 78.392 95.5593 77.8847 99.9396C77.3775 104.32 75.2756 108.361 71.979 111.295C68.6823 114.228 64.421 115.849 60.0056 115.849C55.5902 115.849 51.3288 114.228 48.0322 111.295C44.7356 108.361 42.6337 104.32 42.1264 99.9396C41.6191 95.5593 42.7419 91.1455 45.281 87.538C47.8202 83.9306 51.5986 81.3811 55.8974 80.3746C56.6843 80.1937 57.3874 79.7539 57.8938 79.1259C58.4003 78.4978 58.6805 77.718 58.6896 76.9117C58.6988 76.1054 58.4362 75.3194 57.9442 74.6801C57.4521 74.0407 56.7591 73.5851 55.9766 73.3865C53.2654 72.6837 50.7865 71.2824 48.7878 69.3227C46.7891 67.363 45.3406 64.9136 44.5871 62.2195C43.8336 59.5253 43.8016 56.6808 44.4942 53.9704C45.1869 51.26 46.5799 48.7787 48.534 46.7746C50.4881 44.7705 52.9348 43.3139 55.6294 42.5504C58.324 41.7869 61.1722 41.7433 63.889 42.4239C66.6058 43.1045 69.0961 44.4855 71.1108 46.4288C73.1255 48.3721 74.5941 50.8095 75.3696 53.4975C75.4687 53.8397 75.6794 54.1391 75.9683 54.3481C76.2573 54.557 76.6078 54.6636 76.9643 54.6509C77.3208 54.6382 77.6628 54.5069 77.9361 54.2779C78.2093 54.0488 78.3981 53.7352 78.4725 53.3868C79.369 49.1477 81.5005 45.2679 84.599 42.2354C87.6975 39.2029 91.6247 37.153 95.8867 36.3435C96.6741 36.1969 97.3901 35.7921 97.9212 35.1933C98.4524 34.5945 98.7684 33.8359 98.8193 33.0376C98.8701 32.2393 98.6529 31.4468 98.2021 30.7856C97.7512 30.1244 97.0924 29.6323 96.3299 29.3871C93.6068 28.5128 91.2859 26.6958 89.7857 24.2636C88.2855 21.8314 87.7045 18.944 88.1476 16.1218C88.5907 13.2997 90.0287 10.7284 92.2024 8.87149C94.376 7.01458 97.1423 5.99414 100.003 5.99414C102.863 5.99414 105.63 7.01458 107.803 8.87149C109.977 10.7284 111.415 13.2997 111.858 16.1218C112.301 18.944 111.72 21.8314 110.22 24.2636C108.72 26.6958 106.399 28.5128 103.676 29.3871C102.913 29.6309 102.254 30.1216 101.802 30.7816C101.35 31.4416 101.131 32.2333 101.18 33.0314C101.229 33.8295 101.543 34.5885 102.072 35.1883C102.602 35.7882 103.316 36.1947 104.103 36.3435C108.046 37.0921 111.708 38.9034 114.694 41.5815C116.942 43.5979 118.742 46.0478 119.992 48.772C120.403 49.666 120.754 50.5896 121.042 51.537C121.359 50.6004 121.744 49.6918 122.192 48.818C123.303 46.6547 124.803 44.7044 126.626 43.069C129.186 40.773 132.296 39.1754 135.654 38.4305C136.224 38.3072 136.735 37.9965 137.106 37.5482C137.478 37.1 137.688 36.5401 137.702 35.9585C137.717 35.3768 137.535 34.8072 137.187 34.3409C136.839 33.8746 136.343 33.5387 135.781 33.387C132.044 32.3667 128.804 30.0266 126.664 26.8012C124.523 23.5758 123.628 19.6843 124.143 15.8494C124.659 12.0144 126.55 8.49654 129.466 5.94898C132.383 3.40143 136.125 1.99728 140 1.99728C143.874 1.99728 147.617 3.40143 150.534 5.94898C153.45 8.49654 155.341 12.0144 155.857 15.8494C156.372 19.6843 155.476 23.5758 153.336 26.8012C151.196 30.0266 147.956 32.3667 144.219 33.387C143.656 33.5387 143.161 33.8746 142.813 34.3409C142.464 34.8072 142.283 35.3768 142.298 35.9585C142.312 36.5401 142.522 37.1 142.893 37.5482C143.265 37.9965 143.776 38.3072 144.346 38.4305C148.053 39.2562 151.448 41.1192 154.134 43.8014C156.819 46.4836 158.685 49.8742 159.512 53.5765C159.635 54.1451 159.946 54.6558 160.395 55.0267C160.844 55.3976 161.405 55.6071 161.987 55.6217C162.569 55.6363 163.14 55.4551 163.607 55.1072C164.074 54.7592 164.41 54.2647 164.562 53.703C165.585 49.9718 167.93 46.7382 171.159 44.6024C174.389 42.4665 178.286 41.5736 182.125 42.0892C185.964 42.6049 189.485 44.4941 192.035 47.4062C194.586 50.3184 195.991 54.0556 195.991 57.9243C195.991 61.7929 194.586 65.5302 192.035 68.4424C189.485 71.3545 185.964 73.2437 182.125 73.7594C178.286 74.275 174.389 73.3821 171.159 71.2462C167.93 69.1104 165.585 65.8768 164.562 62.1456C164.412 61.5836 164.077 61.0882 163.611 60.739C163.145 60.3897 162.576 60.2068 161.993 60.2196C161.411 60.2323 160.85 60.44 160.4 60.8093C159.95 61.1787 159.637 61.6882 159.512 62.2563ZM121.142 46.5972C122.264 44.737 123.66 43.0456 125.29 41.5831C128.106 39.0575 131.526 37.3001 135.221 36.4807L135.231 36.4785C135.362 36.4501 135.48 36.3784 135.566 36.275C135.651 36.1717 135.7 36.0426 135.703 35.9084C135.706 35.7742 135.665 35.6429 135.584 35.5353C135.504 35.4278 135.39 35.3503 135.26 35.3153L135.254 35.3136C131.049 34.1657 127.405 31.5331 124.997 27.9045C122.589 24.2759 121.581 19.898 122.161 15.5836C122.741 11.2693 124.869 7.31166 128.15 4.44566C131.43 1.57966 135.641 0 140 0C144.359 0 148.569 1.57965 151.85 4.44566C155.131 7.31167 157.259 11.2693 157.839 15.5836C158.419 19.898 157.411 24.2759 155.003 27.9045C152.595 31.5331 148.951 34.1657 144.746 35.3136L144.74 35.3153C144.61 35.3503 144.496 35.4278 144.416 35.5353C144.335 35.6429 144.294 35.7743 144.297 35.9084C144.3 36.0426 144.349 36.1717 144.434 36.275C144.52 36.3784 144.638 36.4501 144.769 36.4785L144.781 36.481C148.859 37.3894 152.593 39.4386 155.548 42.3891C158.502 45.3396 160.554 49.0692 161.464 53.1417L161.466 53.1534C161.495 53.2846 161.566 53.4024 161.67 53.4878C161.773 53.5734 161.903 53.6217 162.037 53.6251C162.171 53.6284 162.303 53.5866 162.411 53.5064C162.519 53.426 162.596 53.312 162.631 53.1825L162.633 53.1753C163.784 48.9777 166.422 45.3399 170.055 42.9371C173.689 40.5342 178.072 39.5296 182.391 40.1097C186.71 40.6898 190.672 42.8152 193.541 46.0914C196.41 49.3676 197.991 53.572 197.991 57.9243C197.991 62.2766 196.41 66.481 193.541 69.7572C190.672 73.0334 186.71 75.1587 182.391 75.7388C178.072 76.319 173.689 75.3144 170.055 72.9116C166.422 70.5087 163.784 66.8709 162.633 62.6733L162.63 62.6606C162.595 62.531 162.518 62.4167 162.41 62.3362C162.303 62.2556 162.171 62.2134 162.037 62.2164C161.903 62.2193 161.773 62.2672 161.67 62.3524C161.566 62.4376 161.494 62.5551 161.465 62.6861L161.464 62.69C160.421 67.3723 157.872 71.585 154.207 74.6849C150.541 77.7848 145.961 79.6016 141.165 79.8578C136.369 80.1141 131.62 78.7957 127.645 76.104C124.99 74.3065 122.777 71.9626 121.142 69.2503C119.396 72.5004 116.911 75.3237 113.862 77.4794C109.516 80.5514 104.271 82.0931 98.9524 81.862C93.6335 81.6309 88.5426 79.64 84.4809 76.2027C80.7782 73.0693 78.1224 68.8962 76.8476 64.2422C75.9202 66.7098 74.4585 68.9493 72.5605 70.7972C70.3248 72.9738 67.5606 74.5322 64.5394 75.3192L64.5272 75.3223C64.1793 75.4106 63.8713 75.6131 63.6526 75.8972C63.4339 76.1814 63.3172 76.5307 63.3213 76.8891C63.3253 77.2474 63.4499 77.594 63.675 77.8732C63.9001 78.1523 64.2126 78.3478 64.5623 78.4282L64.5702 78.43C69.3467 79.5483 73.5449 82.3811 76.3662 86.3895C79.1875 90.3978 80.435 95.302 79.8714 100.169C79.3077 105.036 76.9723 109.527 73.3094 112.786C69.6464 116.045 64.9116 117.846 60.0056 117.846C55.0996 117.846 50.3647 116.045 46.7018 112.786C43.0389 109.527 40.7034 105.036 40.1398 100.169C39.5761 95.302 40.8236 90.3978 43.6449 86.3895C46.4662 82.3811 50.6644 79.5483 55.4409 78.43L55.4488 78.4282C55.7986 78.3478 56.1112 78.1523 56.3362 77.8732C56.5613 77.5941 56.6858 77.2475 56.6899 76.8891C56.694 76.5307 56.5773 76.1814 56.3586 75.8972C56.1399 75.613 55.8318 75.4105 55.484 75.3223L55.4741 75.3198C52.4241 74.5291 49.6354 72.9526 47.3868 70.7479C45.1382 68.5433 43.5086 65.7877 42.6609 62.7567C41.8133 59.7258 41.7772 56.5257 42.5565 53.4765C43.3357 50.4273 44.9028 47.6358 47.1012 45.3812C49.2996 43.1266 52.0521 41.4879 55.0836 40.629C58.115 39.77 61.3191 39.7209 64.3756 40.4866C67.432 41.2523 70.2335 42.806 72.5001 44.9922C74.4272 46.851 75.9102 49.1117 76.8475 51.6059C77.9669 47.5165 80.1554 43.7879 83.1992 40.8089C86.5795 37.5007 90.8636 35.2645 95.5131 34.3814L95.52 34.3801C95.87 34.3149 96.1882 34.135 96.4243 33.8689C96.6604 33.6028 96.8008 33.2656 96.8234 32.9108C96.846 32.5559 96.7495 32.2037 96.5491 31.9099C96.3487 31.616 96.0559 31.3972 95.717 31.2883C92.5404 30.2681 89.8331 28.1484 88.083 25.3111C86.3327 22.4736 85.655 19.1049 86.1719 15.8124C86.6888 12.5199 88.3665 9.52011 90.9024 7.35373C93.4383 5.18735 96.6656 3.99686 100.003 3.99686C103.34 3.99686 106.567 5.18735 109.103 7.35373C111.639 9.52012 113.317 12.5199 113.834 15.8124C114.351 19.1049 113.673 22.4736 111.922 25.3111C110.172 28.1487 107.465 30.2685 104.288 31.2885L104.285 31.2893C103.946 31.3976 103.653 31.6157 103.452 31.9091C103.251 32.2025 103.154 32.5543 103.176 32.909C103.198 33.2637 103.337 33.601 103.573 33.8677C103.808 34.1343 104.126 34.315 104.475 34.3812C108.776 35.1978 112.773 37.174 116.03 40.0956C118.107 41.9587 119.834 44.161 121.142 46.5972Z" fill="#0066B3"/>
<path fill-rule="evenodd" clip-rule="evenodd" d="M135.253 240.311L135.259 240.31C135.389 240.275 135.503 240.197 135.583 240.09C135.664 239.982 135.705 239.851 135.702 239.717C135.699 239.582 135.65 239.453 135.565 239.35C135.479 239.247 135.361 239.175 135.23 239.146L135.22 239.144C131.177 238.247 127.47 236.229 124.525 233.322C121.92 230.75 120.005 227.575 118.943 224.089C117.671 227.845 115.304 231.149 112.131 233.567C108.579 236.274 104.222 237.715 99.7547 237.66C95.2873 237.605 90.9668 236.058 87.4824 233.266C83.998 230.473 81.5504 226.596 80.5298 222.252L80.5279 222.244C80.4474 221.894 80.2517 221.582 79.9722 221.357C79.6927 221.133 79.3456 221.008 78.9866 221.004C78.6277 221 78.278 221.117 77.9934 221.335C77.7088 221.554 77.5061 221.861 77.4177 222.208L77.4152 222.218C76.3146 226.451 73.7069 230.138 70.0804 232.588C66.4539 235.039 62.0573 236.085 57.714 235.531C53.3706 234.977 49.3784 232.861 46.485 229.579C43.5916 226.296 41.9954 222.074 41.9954 217.701C41.9954 213.328 43.5916 209.105 46.485 205.823C49.3784 202.541 53.3706 200.425 57.714 199.871C62.0573 199.317 66.4539 200.363 70.0804 202.813C73.7069 205.264 76.3146 208.95 77.4151 213.183L77.4178 213.193C77.5061 213.54 77.7088 213.848 77.9934 214.066C78.278 214.285 78.6278 214.401 78.9866 214.397C79.3455 214.393 79.6926 214.269 79.9722 214.044C80.2517 213.819 80.4474 213.507 80.5279 213.158L80.5298 213.15C81.5504 208.806 83.998 204.928 87.4824 202.136C90.9668 199.343 95.2873 197.796 99.7547 197.741C104.222 197.687 108.579 199.128 112.131 201.835C115.304 204.253 117.671 207.556 118.943 211.312C120.189 207.219 122.608 203.567 125.916 200.816C129.591 197.76 134.164 195.983 138.941 195.755C143.719 195.527 148.44 196.86 152.391 199.552C155.023 201.346 157.217 203.678 158.841 206.373C160.15 203.937 161.876 201.735 163.953 199.872C167.21 196.95 171.205 194.974 175.507 194.158L175.513 194.157C175.863 194.091 176.182 193.911 176.418 193.645C176.654 193.379 176.794 193.042 176.817 192.687C176.839 192.332 176.743 191.98 176.542 191.686C176.342 191.392 176.049 191.174 175.71 191.065C172.534 190.045 169.827 187.925 168.076 185.088C166.326 182.25 165.648 178.881 166.165 175.589C166.682 172.296 168.36 169.297 170.896 167.13C173.432 164.964 176.659 163.773 179.996 163.773C183.333 163.773 186.561 164.964 189.097 167.13C191.632 169.297 193.31 172.296 193.827 175.589C194.344 178.881 193.666 182.25 191.916 185.088C190.166 187.925 187.458 190.045 184.281 191.065L184.279 191.066C183.94 191.174 183.647 191.392 183.446 191.686C183.245 191.979 183.148 192.331 183.169 192.685C183.191 193.04 183.331 193.377 183.566 193.644C183.801 193.911 184.119 194.091 184.469 194.158C188.77 194.974 192.766 196.95 196.024 199.872C198.101 201.735 199.827 203.937 201.135 206.373C202.235 204.548 203.599 202.885 205.19 201.442C207.606 199.249 210.475 197.626 213.587 196.681C209.455 195.287 205.878 192.577 203.42 188.948C200.695 184.924 199.532 180.046 200.149 175.227C200.766 170.408 203.12 165.978 206.772 162.768C210.423 159.558 215.121 157.787 219.985 157.787C224.85 157.787 229.548 159.558 233.199 162.768C236.851 165.978 239.205 170.408 239.822 175.227C240.439 180.046 239.276 184.924 236.55 188.948C234.094 192.576 230.519 195.285 226.39 196.679C229.589 197.652 232.53 199.342 234.985 201.627C237.787 204.236 239.858 207.531 240.994 211.185C242.13 214.839 242.29 218.725 241.46 222.46C240.629 226.195 238.836 229.648 236.259 232.479C233.681 235.309 230.409 237.418 226.764 238.598C223.12 239.777 219.23 239.985 215.481 239.202C211.731 238.419 208.251 236.672 205.385 234.133C203.711 232.65 202.28 230.927 201.136 229.028C199.472 232.125 197.136 234.836 194.278 236.952C190.144 240.012 185.134 241.664 179.988 241.664C174.842 241.664 169.833 240.012 165.699 236.952C162.84 234.836 160.505 232.125 158.841 229.028C157.722 230.886 156.328 232.576 154.701 234.038C151.888 236.563 148.471 238.322 144.78 239.144L144.768 239.147C144.637 239.175 144.519 239.247 144.433 239.35C144.348 239.453 144.299 239.582 144.296 239.717C144.293 239.851 144.334 239.982 144.415 240.09C144.495 240.197 144.609 240.275 144.739 240.31L144.745 240.311C148.95 241.459 152.594 244.092 155.002 247.72C157.41 251.349 158.418 255.727 157.838 260.041C157.258 264.356 155.13 268.313 151.849 271.179C148.568 274.045 144.358 275.625 139.999 275.625C135.64 275.625 131.43 274.045 128.149 271.179C124.868 268.313 122.74 264.356 122.16 260.041C121.58 255.727 122.588 251.349 124.996 247.72C127.404 244.092 131.048 241.459 135.253 240.311ZM157.791 226.808C158.24 225.934 158.624 225.025 158.941 224.088C159.23 225.036 159.581 225.96 159.991 226.853C161.53 230.206 163.897 233.132 166.889 235.347C170.679 238.152 175.271 239.666 179.988 239.666C184.705 239.666 189.297 238.152 193.087 235.347C196.08 233.132 198.447 230.205 199.986 226.853C200.396 225.96 200.747 225.036 201.036 224.088C201.352 225.025 201.737 225.933 202.186 226.807C203.315 229.007 204.847 230.987 206.712 232.639C209.317 234.947 212.481 236.535 215.89 237.247C219.299 237.959 222.835 237.77 226.148 236.698C229.461 235.626 232.436 233.708 234.779 231.135C237.123 228.562 238.752 225.422 239.507 222.027C240.262 218.632 240.116 215.098 239.084 211.777C238.052 208.455 236.169 205.46 233.621 203.088C231.074 200.717 227.951 199.05 224.561 198.254C224.214 198.172 223.905 197.977 223.682 197.7C223.459 197.423 223.335 197.079 223.329 196.723C223.324 196.368 223.437 196.02 223.652 195.736C223.866 195.452 224.169 195.248 224.513 195.156C228.75 194.056 232.441 191.451 234.894 187.829C237.347 184.207 238.394 179.817 237.838 175.48C237.283 171.143 235.164 167.156 231.878 164.267C228.592 161.378 224.364 159.785 219.985 159.785C215.607 159.785 211.379 161.378 208.093 164.267C204.807 167.156 202.688 171.143 202.132 175.48C201.577 179.817 202.624 184.207 205.077 187.829C207.53 191.451 211.22 194.056 215.458 195.156C215.802 195.246 216.106 195.449 216.322 195.732C216.538 196.015 216.653 196.362 216.649 196.717C216.646 197.073 216.523 197.417 216.302 197.695C216.08 197.974 215.772 198.171 215.426 198.254C212.113 199.029 209.053 200.635 206.535 202.92C204.749 204.54 203.278 206.464 202.185 208.594C201.737 209.468 201.352 210.377 201.036 211.313C200.747 210.366 200.396 209.442 199.986 208.548C198.735 205.824 196.935 203.374 194.687 201.358C191.701 198.68 188.039 196.868 184.096 196.12C183.31 195.971 182.595 195.565 182.066 194.965C181.536 194.365 181.222 193.606 181.173 192.808C181.124 192.01 181.343 191.218 181.795 190.558C182.247 189.898 182.906 189.407 183.669 189.164C186.392 188.289 188.713 186.472 190.213 184.04C191.713 181.608 192.294 178.72 191.851 175.898C191.408 173.076 189.97 170.505 187.797 168.648C185.623 166.791 182.857 165.771 179.996 165.771C177.136 165.771 174.369 166.791 172.196 168.648C170.022 170.505 168.584 173.076 168.141 175.898C167.698 178.72 168.279 181.608 169.779 184.04C171.279 186.472 173.6 188.289 176.323 189.164C177.086 189.409 177.745 189.901 178.195 190.562C178.646 191.223 178.864 192.016 178.813 192.814C178.762 193.612 178.446 194.371 177.915 194.97C177.384 195.569 176.667 195.973 175.88 196.12C171.937 196.868 168.275 198.68 165.289 201.358C163.041 203.374 161.241 205.824 159.991 208.548C159.581 209.442 159.229 210.366 158.941 211.313C158.624 210.375 158.239 209.467 157.791 208.594C156.275 205.638 154.036 203.092 151.264 201.202C147.672 198.755 143.38 197.543 139.037 197.75C134.694 197.958 130.537 199.573 127.195 202.351C123.854 205.129 121.51 208.92 120.519 213.147C120.435 213.493 120.238 213.801 119.959 214.022C119.68 214.243 119.336 214.365 118.98 214.369C118.624 214.373 118.277 214.258 117.993 214.042C117.71 213.827 117.507 213.523 117.416 213.179C116.402 209.293 114.114 205.858 110.918 203.422C107.721 200.986 103.8 199.689 99.7791 199.739C95.7585 199.788 91.8701 201.18 88.7341 203.693C85.5982 206.207 83.3953 209.696 82.4768 213.606C82.2957 214.392 81.8553 215.094 81.2264 215.6C80.5976 216.105 79.8167 216.385 79.0093 216.394C78.2019 216.404 77.4149 216.141 76.7747 215.65C76.1345 215.159 75.6783 214.466 75.4795 213.685C74.5012 209.923 72.1833 206.646 68.9597 204.468C65.7362 202.289 61.8281 201.359 57.9673 201.852C54.1066 202.344 50.5579 204.225 47.986 207.143C45.4141 210.06 43.9953 213.814 43.9953 217.701C43.9953 221.588 45.4141 225.341 47.986 228.259C50.5579 231.176 54.1066 233.057 57.9673 233.55C61.8281 234.042 65.7362 233.112 68.9597 230.934C72.1833 228.756 74.5012 225.479 75.4795 221.716C75.6783 220.935 76.1345 220.243 76.7747 219.751C77.4149 219.26 78.2019 218.998 79.0093 219.007C79.8167 219.016 80.5976 219.296 81.2264 219.802C81.8553 220.308 82.2957 221.01 82.4768 221.796C83.3953 225.705 85.5982 229.195 88.7341 231.708C91.8701 234.221 95.7585 235.614 99.7791 235.663C103.8 235.712 107.721 234.415 110.918 231.979C114.114 229.543 116.402 226.108 117.416 222.222C117.507 221.879 117.71 221.575 117.993 221.359C118.277 221.144 118.624 221.029 118.98 221.032C119.336 221.036 119.68 221.158 119.959 221.379C120.238 221.601 120.435 221.908 120.519 222.254C121.378 225.914 123.254 229.258 125.931 231.901C128.608 234.545 131.978 236.379 135.653 237.195C136.223 237.318 136.734 237.628 137.105 238.077C137.477 238.525 137.687 239.085 137.701 239.667C137.716 240.248 137.534 240.818 137.186 241.284C136.838 241.75 136.342 242.086 135.78 242.238C132.043 243.258 128.803 245.598 126.663 248.824C124.522 252.049 123.627 255.941 124.142 259.776C124.658 263.611 126.549 267.128 129.465 269.676C132.382 272.224 136.124 273.628 139.999 273.628C143.873 273.628 147.616 272.224 150.533 269.676C153.449 267.128 155.34 263.611 155.856 259.776C156.371 255.941 155.476 252.049 153.335 248.824C151.195 245.598 147.955 243.258 144.218 242.238C143.655 242.086 143.16 241.75 142.812 241.284C142.464 240.818 142.282 240.248 142.297 239.667C142.311 239.085 142.521 238.525 142.892 238.077C143.264 237.628 143.775 237.318 144.345 237.195C147.7 236.447 150.807 234.848 153.364 232.553C155.184 230.918 156.682 228.969 157.791 226.808Z" fill="#0066B3"/>
<path fill-rule="evenodd" clip-rule="evenodd" d="M232.006 137.812L231.626 140.794L230.523 143.587L228.753 146.02L226.435 147.936L223.711 149.23L220.74 149.781L217.739 149.591L214.871 148.662L212.338 147.064L210.263 144.859L208.817 142.217L208.075 139.311V136.314L208.817 133.389L210.265 130.762L212.334 128.563L214.871 126.944L217.745 126.032L220.74 125.843L223.711 126.394L226.435 127.688L228.753 129.604L230.523 132.037L231.626 134.829L232.006 137.812ZM228.755 133.006L229.674 135.33L229.99 137.812L229.674 140.294L228.755 142.618L227.283 144.642L225.352 146.239L223.088 147.314L220.618 147.772L218.117 147.614L215.727 146.839L213.621 145.511L211.895 143.677L210.692 141.48L210.075 139.061V136.563L210.692 134.128L211.895 131.946L213.621 130.112L215.727 128.769L218.117 128.01L220.618 127.851L223.088 128.31L225.352 129.385L227.283 130.982L228.755 133.006Z" fill="#0066B3"/>
</svg>
